<svg width="20" height="20" viewBox="0 0 20 20" fill="none" xmlns="http://www.w3.org/2000/svg">
<path d="M15.0907 10.584C14.8947 10.612 14.6947 10.626 14.4907 10.626C14.2867 10.626 14.0867 10.612 13.8907 10.584V10.88C13.8907 13.804 11.8167 16.302 8.96067 16.82C8.93867 16.824 8.91467 16.826 8.89067 16.826C8.86667 16.826 8.84267 16.824 8.81867 16.82C5.96267 16.304 3.89067 13.806 3.89067 10.882V5.23001C3.89067 5.00801 4.06867 4.83001 4.29067 4.83001H5.09067C6.37267 4.83001 7.60867 4.45201 8.66667 3.73801C8.80267 3.64601 8.97867 3.64601 9.11467 3.73801C9.54067 4.02601 9.99867 4.25601 10.4747 4.43201C10.6447 4.05401 10.8667 3.70401 11.1307 3.39201C10.2807 3.12601 9.51067 2.64201 8.89067 1.97601C7.90867 3.03201 6.54867 3.63001 5.09067 3.63001H3.09067C2.86867 3.63001 2.69067 3.80801 2.69067 4.03001V10.866C2.69067 14.464 5.35067 17.532 8.89067 18.026C12.4287 17.532 15.0907 14.464 15.0907 10.866C15.0907 10.854 15.0927 10.842 15.0947 10.828H15.0907V10.584Z" fill="url(#paint0_linear_60_990)"/>
<path d="M8.82812 4.53125C7.77846 5.24177 6.57411 5.61604 5.32924 5.61604H4.96094V10.8719C4.96094 13.3857 6.58331 15.5373 8.82812 16.0156C11.0729 15.5373 12.6953 13.3857 12.6953 10.8719V10.3895C11.0914 9.80109 9.93304 8.15389 9.93304 6.21648C9.93304 5.85822 9.97355 5.50996 10.0472 5.17772C9.62366 5.0076 9.21484 4.79344 8.82812 4.53125Z" fill="url(#paint1_linear_60_990)"/>
<path d="M14.1 2.63C12.114 2.63 10.5 4.244 10.5 6.23001C10.5 8.214 12.114 9.828 14.1 9.828C16.084 9.828 17.7 8.214 17.7 6.23001C17.7 4.244 16.084 2.63 14.1 2.63ZM16.182 5.31L13.782 7.71C13.704 7.788 13.602 7.828 13.5 7.828C13.398 7.828 13.294 7.788 13.216 7.71L12.016 6.51C11.86 6.354 11.86 6.1 12.016 5.944C12.174 5.788 12.426 5.788 12.582 5.944L12.724 6.086L13.5 6.86201L15.052 5.31L15.616 4.744C15.774 4.588 16.026 4.588 16.182 4.744C16.338 4.902 16.338 5.156 16.182 5.31Z" fill="url(#paint2_linear_60_990)"/>
<defs>
<linearGradient id="paint0_linear_60_990" x1="8.89267" y1="1.97601" x2="8.89267" y2="18.026" gradientUnits="userSpaceOnUse">
<stop stop-color="#B7E4DB"/>
<stop offset="1" stop-color="white" stop-opacity="0.62"/>
</linearGradient>
<linearGradient id="paint1_linear_60_990" x1="8.82812" y1="4.53125" x2="8.82813" y2="16.0156" gradientUnits="userSpaceOnUse">
<stop stop-color="#B7E4DB"/>
<stop offset="1" stop-color="white" stop-opacity="0.62"/>
</linearGradient>
<linearGradient id="paint2_linear_60_990" x1="14.1" y1="2.63" x2="14.1" y2="9.828" gradientUnits="userSpaceOnUse">
<stop stop-color="#B7E4DB"/>
<stop offset="1" stop-color="white" stop-opacity="0.62"/>
</linearGradient>
</defs>
</svg>
