<svg width="26" height="26" viewBox="0 0 26 26" fill="none" xmlns="http://www.w3.org/2000/svg">
<path d="M10.3596 3.04688C9.7131 3.04688 9.09311 3.30368 8.63599 3.7608C8.17887 4.21792 7.92207 4.83791 7.92207 5.48438C7.92207 6.13084 8.17887 6.75083 8.63599 7.20795C9.09311 7.66507 9.7131 7.92188 10.3596 7.92188C11.006 7.92188 11.626 7.66507 12.0831 7.20795C12.5403 6.75083 12.7971 6.13084 12.7971 5.48438C12.7971 4.83791 12.5403 4.21792 12.0831 3.7608C11.626 3.30368 11.006 3.04688 10.3596 3.04688ZM11.1469 8.71244C10.9063 8.71549 10.6693 8.77194 10.4532 8.87772C10.237 8.9835 10.0471 9.13596 9.89704 9.3241C9.747 9.51223 9.64062 9.73134 9.58557 9.9656C9.53053 10.1999 9.5282 10.4434 9.57875 10.6787L11.1518 18.5445C11.1671 18.9498 11.3335 19.3346 11.6181 19.6235C11.8054 19.8236 12.0402 19.973 12.3007 20.058C12.5613 20.1429 12.8391 20.1606 13.1083 20.1094H16.8596V22.9531C16.8596 23.2764 16.988 23.5864 17.2165 23.8149C17.4451 24.0435 17.7551 24.1719 18.0783 24.1719C18.4016 24.1719 18.7115 24.0435 18.9401 23.8149C19.1687 23.5864 19.2971 23.2764 19.2971 22.9531V18.0781C19.2994 17.9151 19.2689 17.7532 19.2075 17.6021C19.1461 17.451 19.055 17.3138 18.9397 17.1986C18.8243 17.0833 18.6869 16.9924 18.5358 16.9312C18.3846 16.87 18.2227 16.8398 18.0596 16.8423C17.982 16.8439 17.9048 16.8529 17.8289 16.8691C17.7684 16.8625 17.7077 16.8592 17.6469 16.8594H14.1288L12.7654 10.0401C12.6953 9.66352 12.4945 9.32382 12.1984 9.08092C11.9023 8.83801 11.5299 8.70751 11.1469 8.71244ZM8.32832 12.7855C8.20801 12.787 8.08954 12.8153 7.98147 12.8681C7.8734 12.921 7.77842 12.9973 7.7034 13.0913C7.62838 13.1854 7.57519 13.295 7.54766 13.4121C7.52014 13.5292 7.51898 13.651 7.54425 13.7686L8.77763 19.9355C8.9265 20.6713 9.32498 21.3331 9.90564 21.809C10.4863 22.2848 11.2135 22.5455 11.9643 22.5469H15.2346C15.4501 22.5469 15.6567 22.4613 15.8091 22.3089C15.9615 22.1565 16.0471 21.9499 16.0471 21.7344C16.0471 21.5189 15.9615 21.3122 15.8091 21.1599C15.6567 21.0075 15.4501 20.9219 15.2346 20.9219H11.9643C11.5883 20.9234 11.2235 20.7939 10.9328 20.5556C10.642 20.3173 10.4433 19.9851 10.3709 19.6162L9.13757 13.4509C9.10288 13.2624 9.00262 13.0921 8.85452 12.9704C8.70643 12.8486 8.52004 12.7831 8.32832 12.7855Z" fill="black"/>
</svg>
