<svg width="26" height="26" viewBox="0 0 26 26" fill="none" xmlns="http://www.w3.org/2000/svg">
<g clip-path="url(#clip0_60_986)">
<path d="M2.78585 24.1429H23.2144V9.28571H2.78585V24.1429ZM8.35728 6.5V2.32143C8.35728 2.18601 8.31376 2.07478 8.2267 1.98772C8.13965 1.90067 8.02841 1.85714 7.893 1.85714H6.96443C6.82901 1.85714 6.71777 1.90067 6.63072 1.98772C6.54367 2.07478 6.50014 2.18601 6.50014 2.32143V6.5C6.50014 6.63542 6.54367 6.74665 6.63072 6.8337C6.71777 6.92076 6.82901 6.96429 6.96443 6.96429H7.893C8.02841 6.96429 8.13965 6.92076 8.2267 6.8337C8.31376 6.74665 8.35728 6.63542 8.35728 6.5ZM19.5001 6.5V2.32143C19.5001 2.18601 19.4566 2.07478 19.3696 1.98772C19.2825 1.90067 19.1713 1.85714 19.0359 1.85714H18.1073C17.9719 1.85714 17.8606 1.90067 17.7736 1.98772C17.6865 2.07478 17.643 2.18601 17.643 2.32143V6.5C17.643 6.63542 17.6865 6.74665 17.7736 6.8337C17.8606 6.92076 17.9719 6.96429 18.1073 6.96429H19.0359C19.1713 6.96429 19.2825 6.92076 19.3696 6.8337C19.4566 6.74665 19.5001 6.63542 19.5001 6.5ZM25.0716 5.57143V24.1429C25.0716 24.6458 24.8878 25.0811 24.5202 25.4487C24.1527 25.8162 23.7174 26 23.2144 26H2.78585C2.28288 26 1.84761 25.8162 1.48005 25.4487C1.11249 25.0811 0.928711 24.6458 0.928711 24.1429V5.57143C0.928711 5.06845 1.11249 4.63318 1.48005 4.26562C1.84761 3.89807 2.28288 3.71429 2.78585 3.71429H4.643V2.32143C4.643 1.68304 4.8703 1.13653 5.32492 0.68192C5.77953 0.227307 6.32603 0 6.96443 0H7.893C8.53139 0 9.07789 0.227307 9.53251 0.68192C9.98712 1.13653 10.2144 1.68304 10.2144 2.32143V3.71429H15.7859V2.32143C15.7859 1.68304 16.0132 1.13653 16.4678 0.68192C16.9224 0.227307 17.4689 0 18.1073 0H19.0359C19.6742 0 20.2207 0.227307 20.6754 0.68192C21.13 1.13653 21.3573 1.68304 21.3573 2.32143V3.71429H23.2144C23.7174 3.71429 24.1527 3.89807 24.5202 4.26562C24.8878 4.63318 25.0716 5.06845 25.0716 5.57143Z" fill="black"/>
</g>
<defs>
<clipPath id="clip0_60_986">
<rect width="26" height="26" fill="white" transform="translate(0.000244141)"/>
</clipPath>
</defs>
</svg>
