<svg width="60" height="60" viewBox="0 0 60 60" fill="none" xmlns="http://www.w3.org/2000/svg">
<path d="M30 0C24.0666 0 18.2664 1.75947 13.3329 5.05591C8.39943 8.35235 4.55426 13.0377 2.28363 18.5195C0.0129988 24.0013 -0.581102 30.0333 0.576455 35.8527C1.73401 41.6721 4.59123 47.0176 8.78681 51.2132C12.9824 55.4088 18.3279 58.266 24.1473 59.4236C29.9667 60.5811 35.9987 59.987 41.4805 57.7164C46.9623 55.4458 51.6477 51.6006 54.9441 46.6671C58.2405 41.7336 60 35.9334 60 30C59.991 22.0463 56.8274 14.4209 51.2033 8.79674C45.5791 3.17259 37.9537 0.00899894 30 0V0ZM42.02 40.6064C42.1148 40.6988 42.1903 40.8091 42.2421 40.931C42.2939 41.0528 42.3211 41.1837 42.3219 41.3161C42.3227 41.4485 42.2973 41.5797 42.247 41.7022C42.1967 41.8246 42.1226 41.9359 42.029 42.0295C41.9354 42.1231 41.8241 42.1972 41.7017 42.2475C41.5792 42.2978 41.448 42.3232 41.3156 42.3224C41.1832 42.3216 41.0523 42.2944 40.9305 42.2426C40.8087 42.1908 40.6983 42.1153 40.6059 42.0205L30 31.4141L19.3936 42.0205C19.3015 42.1168 19.1912 42.1937 19.069 42.2468C18.9467 42.2998 18.8152 42.3279 18.6819 42.3294C18.5487 42.3309 18.4165 42.3058 18.2932 42.2554C18.1698 42.2051 18.0577 42.1307 17.9635 42.0365C17.8694 41.9422 17.7949 41.8301 17.7447 41.7068C17.6944 41.5834 17.6693 41.4512 17.6708 41.318C17.6724 41.1847 17.7005 41.0532 17.7536 40.931C17.8067 40.8088 17.8837 40.6984 17.98 40.6064L28.5859 30L17.98 19.3936C17.8016 19.2043 17.7039 18.953 17.7077 18.6929C17.7116 18.4328 17.8166 18.1845 18.0005 18.0005C18.1845 17.8166 18.4328 17.7116 18.6929 17.7077C18.953 17.7039 19.2043 17.8016 19.3936 17.98L30 28.5859L40.6064 17.98C40.6988 17.8852 40.8092 17.8097 40.931 17.7579C41.0528 17.7061 41.1837 17.6789 41.3161 17.6781C41.4485 17.6773 41.5797 17.7027 41.7022 17.753C41.8246 17.8033 41.9359 17.8774 42.0295 17.971C42.1231 18.0646 42.1972 18.1759 42.2475 18.2983C42.2978 18.4208 42.3232 18.552 42.3224 18.6844C42.3216 18.8168 42.2944 18.9477 42.2426 19.0695C42.1908 19.1914 42.1153 19.3017 42.0205 19.3941L31.4141 30L42.02 40.6064Z" fill="black"/>
</svg>
