<svg width="20" height="20" viewBox="0 0 20 20" fill="none" xmlns="http://www.w3.org/2000/svg">
<g clip-path="url(#clip0_81_111)">
<path fill-rule="evenodd" clip-rule="evenodd" d="M8.87133 1.22499C9.45483 0.512327 10.5447 0.512324 11.1281 1.22498L11.9547 2.23452C12.0113 2.30372 12.1058 2.32904 12.1894 2.29745L13.41 1.83642C14.2717 1.51097 15.2155 2.05589 15.3644 2.96482L15.5755 4.25237C15.5899 4.34062 15.6591 4.4098 15.7473 4.42427L17.0349 4.63529C17.9438 4.78427 18.4887 5.72808 18.1633 6.58972L17.7023 7.81029C17.6707 7.89395 17.696 7.98845 17.7652 8.0451L18.7747 8.87161C19.4874 9.45511 19.4874 10.5449 18.7747 11.1284L17.5122 12.1621C17.2451 12.3808 16.8513 12.3415 16.6327 12.0744C16.414 11.8074 16.4532 11.4136 16.7203 11.1949L17.9829 10.1612C18.0847 10.0779 18.0847 9.92219 17.9829 9.83886L16.9733 9.01227C16.489 8.61569 16.3117 7.95424 16.5329 7.36861L16.9939 6.14803C17.0404 6.02495 16.9626 5.89012 16.8327 5.86883L15.5452 5.65781C14.9274 5.55655 14.4432 5.07232 14.3419 4.45455L14.1309 3.16699C14.1097 3.03714 13.9748 2.9593 13.8517 3.00579L12.6312 3.46682C12.0455 3.68801 11.384 3.51077 10.9874 3.02639L10.1609 2.01685C10.0776 1.91504 9.92183 1.91504 9.8385 2.01685L9.012 3.02639C8.61541 3.51077 7.95394 3.68802 7.36831 3.46682L6.14773 3.00579C6.02464 2.9593 5.88981 3.03714 5.86853 3.16699L5.6575 4.45454C5.55625 5.07232 5.07201 5.55655 4.45424 5.65781L3.16668 5.86883C3.03684 5.89012 2.95899 6.02495 3.00548 6.14803L3.46651 7.36861C3.68771 7.95424 3.51046 8.61569 3.02608 9.01227L2.01654 9.83886C1.91473 9.92219 1.91473 10.0779 2.01654 10.1612L3.02608 10.9878C3.51046 11.3844 3.68771 12.0458 3.46651 12.6314L3.00548 13.852C2.95899 13.9751 3.03684 14.1099 3.16668 14.1312L4.45424 14.3423C5.07201 14.4435 5.55625 14.9277 5.6575 15.5455L5.86853 16.833C5.88981 16.9629 6.02464 17.0408 6.14773 16.9943L7.3683 16.5333C7.95394 16.312 8.61541 16.4893 9.012 16.9737L9.8385 17.9832C9.92183 18.085 10.0776 18.085 10.1609 17.9832L10.9874 16.9737C11.384 16.4893 12.0455 16.312 12.6312 16.5333L13.8517 16.9943C13.9748 17.0408 14.1097 16.9629 14.1309 16.833L14.4387 14.9548C14.4946 14.6141 14.816 14.3833 15.1566 14.439C15.4972 14.4949 15.7282 14.8163 15.6723 15.1569L15.3644 17.0352C15.2155 17.9442 14.2717 18.4891 13.41 18.1636L12.1894 17.7026C12.1057 17.671 12.0113 17.6964 11.9547 17.7655L11.1281 18.775C10.5447 19.4877 9.45483 19.4877 8.87133 18.775L8.0448 17.7655C7.98814 17.6964 7.89365 17.671 7.80998 17.7026L6.58941 18.1636C5.72778 18.4891 4.78396 17.9442 4.63499 17.0353L4.42396 15.7477C4.40949 15.6594 4.34031 15.5903 4.25206 15.5758L2.96451 15.3648C2.05559 15.2158 1.51067 14.2719 1.83611 13.4104L2.29714 12.1898C2.32874 12.1061 2.30342 12.0116 2.23422 11.9549L1.22468 11.1284C0.512022 10.5449 0.512019 9.45511 1.22468 8.87161L2.23422 8.0451C2.30342 7.98845 2.32874 7.89395 2.29714 7.81029L1.83611 6.58972C1.51067 5.72808 2.05559 4.78427 2.96451 4.63529L4.25206 4.42427C4.34031 4.4098 4.40949 4.34062 4.42396 4.25237L4.63499 2.96481C4.78396 2.05589 5.72778 1.51097 6.58941 1.83642L7.80998 2.29745C7.89365 2.32905 7.98814 2.30372 8.0448 2.23452L8.87133 1.22499Z" fill="url(#paint0_linear_81_111)"/>
<path fill-rule="evenodd" clip-rule="evenodd" d="M15.0253 6.64137C15.2694 6.88544 15.2694 7.28118 15.0253 7.52525L9.192 13.3586C9.07483 13.4758 8.91583 13.5416 8.75008 13.5416C8.58433 13.5416 8.42533 13.4758 8.30814 13.3586L4.9748 10.0252C4.73073 9.78114 4.73073 9.38548 4.9748 9.14139C5.21888 8.89731 5.61461 8.89731 5.85869 9.14139L8.75008 12.0327L14.1415 6.64137C14.3856 6.39729 14.7812 6.39729 15.0253 6.64137Z" fill="url(#paint1_linear_81_111)"/>
</g>
<defs>
<linearGradient id="paint0_linear_81_111" x1="9.99972" y1="0.690491" x2="9.99972" y2="19.3095" gradientUnits="userSpaceOnUse">
<stop stop-color="#B8DDD6"/>
<stop offset="1" stop-color="white" stop-opacity="0.63"/>
</linearGradient>
<linearGradient id="paint1_linear_81_111" x1="10.0001" y1="6.45831" x2="10.0001" y2="13.5416" gradientUnits="userSpaceOnUse">
<stop stop-color="#B8DDD6"/>
<stop offset="1" stop-color="white" stop-opacity="0.63"/>
</linearGradient>
<clipPath id="clip0_81_111">
<rect width="20" height="20" fill="white"/>
</clipPath>
</defs>
</svg>
