<svg width="80" height="76" viewBox="0 0 80 76" fill="none" xmlns="http://www.w3.org/2000/svg">
<rect y="0.224976" width="80" height="75" rx="30" fill="url(#paint0_linear_42_254)"/>
<g clip-path="url(#clip0_42_254)">
<path d="M49.375 18.35H51.25V16.475H53.125V14.6H51.25V12.725H49.375V14.6H47.5V16.475H49.375V18.35ZM47.5 29.6H49.375V27.725H51.25V25.85H49.375V23.975H47.5V25.85H45.625V27.725H47.5V29.6ZM28.75 18.35H30.625V16.475H32.5V14.6H30.625V12.725H28.75V14.6H26.875V16.475H28.75V18.35ZM64.375 29.6V13.6625C64.37 11.4262 63.4795 9.283 61.8982 7.70173C60.317 6.12047 58.1737 5.22993 55.9375 5.22498H24.0625C21.8263 5.22993 19.683 6.12047 18.1018 7.70173C16.5205 9.283 15.63 11.4262 15.625 13.6625V29.6H10V35.225H11.875V45.5375C11.8529 46.6341 12.216 47.7038 12.9012 48.5602C13.5864 49.4167 14.5503 50.0058 15.625 50.225V51.2562C15.6248 52.3368 15.9979 53.3843 16.6813 54.2214C17.3646 55.0586 18.3162 55.6339 19.375 55.85V63.35H15.625V65.225H30.625V63.35H26.875V55.85H53.125V63.35H49.375V65.225H64.375V63.35H60.625V55.85C61.6838 55.6339 62.6354 55.0586 63.3187 54.2214C64.0021 53.3843 64.3752 52.3368 64.375 51.2562V50.225C65.4338 50.0089 66.3854 49.4336 67.0687 48.5964C67.7521 47.7593 68.1252 46.7118 68.125 45.6312V35.225H70V29.6H64.375ZM17.5 13.6625C17.5 11.922 18.1914 10.2528 19.4221 9.02209C20.6528 7.79138 22.322 7.09998 24.0625 7.09998H55.9375C57.678 7.09998 59.3472 7.79138 60.5779 9.02209C61.8086 10.2528 62.5 11.922 62.5 13.6625V29.6H55V35.225H56.875V38.0562C56.0653 37.4422 55.0787 37.1067 54.0625 37.1H25.9375C24.9213 37.1067 23.9347 37.4422 23.125 38.0562V35.225H25V29.6H17.5V13.6625ZM56.875 41.7875V48.35H23.125V41.7875C23.125 41.0416 23.4213 40.3262 23.9488 39.7987C24.4762 39.2713 25.1916 38.975 25.9375 38.975H54.0625C54.8084 38.975 55.5238 39.2713 56.0512 39.7987C56.5787 40.3262 56.875 41.0416 56.875 41.7875ZM11.875 33.35V31.475H23.125V33.35H11.875ZM16.5625 48.35C15.8166 48.35 15.1012 48.0537 14.5738 47.5262C14.0463 46.9988 13.75 46.2834 13.75 45.5375V35.225H21.25V48.35H16.5625ZM25 63.35H21.25V55.85H25V63.35ZM58.75 63.35H55V55.85H58.75V63.35ZM62.5 51.1625C62.5 51.9084 62.2037 52.6238 61.6762 53.1512C61.1488 53.6787 60.4334 53.975 59.6875 53.975H20.3125C19.5666 53.975 18.8512 53.6787 18.3238 53.1512C17.7963 52.6238 17.5 51.9084 17.5 51.1625V50.225H62.5V51.1625ZM66.25 45.5375C66.25 46.2834 65.9537 46.9988 65.4262 47.5262C64.8988 48.0537 64.1834 48.35 63.4375 48.35H58.75V35.225H66.25V45.5375ZM68.125 33.35H56.875V31.475H68.125V33.35ZM32.5 23.975H30.625V25.85H28.75V27.725H30.625V29.6H32.5V27.725H34.375V25.85H32.5V23.975Z" fill="white"/>
</g>
<defs>
<linearGradient id="paint0_linear_42_254" x1="1.5093e-06" y1="-43.4485" x2="93.6862" y2="107.342" gradientUnits="userSpaceOnUse">
<stop stop-color="#454545"/>
<stop offset="1"/>
</linearGradient>
<clipPath id="clip0_42_254">
<rect width="60" height="60" fill="white" transform="translate(10 5.22498)"/>
</clipPath>
</defs>
</svg>
