<svg width="81" height="76" viewBox="0 0 81 76" fill="none" xmlns="http://www.w3.org/2000/svg">
<rect x="0.75" y="0.224976" width="80" height="75" rx="30" fill="url(#paint0_linear_41_230)"/>
<path d="M64.5438 21.4397H61.5625V16.0724C61.5625 12.7956 58.8625 10.0837 55.6 10.0837H35.4062L39.2875 6.18543C39.5125 5.95944 39.5125 5.62046 39.2875 5.39447C39.0625 5.16848 38.725 5.16848 38.5 5.39447L33.6062 10.2532C33.4937 10.3662 33.4375 10.4792 33.4375 10.6487C33.4375 10.8182 33.4937 10.9312 33.6062 11.0442L38.5 15.9029C38.6125 16.0159 38.7812 16.0724 38.8938 16.0724C39.0063 16.0724 39.175 16.0159 39.2875 15.9029C39.5125 15.677 39.5125 15.338 39.2875 15.112L35.4062 11.2137H55.6C58.2438 11.2137 60.4375 13.4171 60.4375 16.0724V21.4962H16.9562C15.1562 21.4962 13.75 22.9651 13.75 24.7165V29.6883V34.886V52.0046C13.75 53.8125 15.2125 55.225 16.9562 55.225H64.5438C66.3438 55.225 67.75 53.756 67.75 52.0046V34.886V29.6883V24.7165C67.75 22.9086 66.2875 21.4397 64.5438 21.4397ZM16.9562 22.5696H60.8312C60.8875 22.5696 60.9437 22.6261 61 22.6261C61.0563 22.6261 61.1125 22.6261 61.1688 22.5696H64.6C65.7812 22.5696 66.6812 23.5301 66.6812 24.66V29.0668H14.875V24.66C14.875 23.5301 15.8312 22.5696 16.9562 22.5696ZM66.625 34.321H14.875V30.2532H66.625V34.321ZM64.5438 54.095H16.9562C15.775 54.095 14.875 53.1346 14.875 52.0046V35.451H66.625V52.0046C66.625 53.1346 65.6688 54.095 64.5438 54.095Z" fill="white"/>
<path d="M28.956 55.225C28.166 55.225 27.376 55.388 26.6988 55.7685C26.0217 55.4424 25.2316 55.225 24.4416 55.225C21.5636 55.225 19.25 57.4532 19.25 60.225C19.25 62.9967 21.5636 65.225 24.4416 65.225C25.2316 65.225 26.0217 65.0619 26.6988 64.6815C27.4324 65.0076 28.166 65.225 28.956 65.225C31.834 65.225 34.1476 62.9967 34.1476 60.225C34.1476 57.4532 31.834 55.225 28.956 55.225ZM24.4416 64.0837C22.1844 64.0837 20.3786 62.3445 20.3786 60.1706C20.3786 57.9967 22.1844 56.2576 24.4416 56.2576C24.8366 56.2576 25.2316 56.3119 25.5702 56.4206C25.5138 56.475 25.4573 56.5293 25.4573 56.5293C25.4009 56.5837 25.3445 56.638 25.2881 56.6924C25.1752 56.8011 25.0623 56.9098 25.0059 57.0185C24.9495 57.0728 24.9495 57.1271 24.893 57.1815C24.7802 57.3445 24.6673 57.5076 24.5545 57.6706C24.5545 57.6706 24.5545 57.725 24.498 57.725C24.3852 57.888 24.3287 58.0511 24.2723 58.1598C24.2723 58.2141 24.2159 58.2685 24.2159 58.3228C24.1594 58.4315 24.103 58.5945 24.103 58.7032C24.103 58.7576 24.0466 58.8663 24.0466 58.9206C23.9902 59.0293 23.9902 59.1924 23.9337 59.3554C23.9337 59.4098 23.9337 59.4641 23.8773 59.5185C23.8773 59.7358 23.8209 59.8989 23.8209 60.1163C23.8209 60.3337 23.8209 60.5511 23.8773 60.7141C23.8773 60.7685 23.8773 60.8228 23.9337 60.8771C23.9337 61.0402 23.9902 61.1489 24.0466 61.3119C24.0466 61.3663 24.103 61.475 24.103 61.5293C24.1594 61.638 24.2159 61.8011 24.2159 61.9098C24.2159 61.9641 24.2723 62.0185 24.2723 62.0728C24.3287 62.2358 24.4416 62.3989 24.498 62.5076C24.498 62.5076 24.498 62.5619 24.5545 62.5619C24.6673 62.725 24.7802 62.888 24.893 63.0511C24.9495 63.1054 24.9495 63.1598 25.0059 63.2141C25.1188 63.3228 25.1752 63.4315 25.2881 63.5402C25.3445 63.5945 25.4009 63.6489 25.4573 63.7032C25.5138 63.7576 25.5138 63.8119 25.5702 63.8119C25.1752 64.0293 24.8366 64.0837 24.4416 64.0837ZM28.956 64.0837C28.2224 64.0837 27.6017 63.9206 26.981 63.5945C25.7395 62.888 24.9495 61.638 24.9495 60.225C24.9495 58.8119 25.7395 57.5076 26.981 56.8554C27.6017 56.5293 28.2789 56.3663 28.956 56.3663C31.2133 56.3663 33.019 58.1054 33.019 60.2793C33.019 62.3445 31.2133 64.0837 28.956 64.0837ZM61.6857 59.6271H40.75C40.4114 59.6271 40.1857 59.8445 40.1857 60.1706C40.1857 60.4967 40.4114 60.7141 40.75 60.7141H61.6857C62.0243 60.7141 62.25 60.4967 62.25 60.1706C62.25 59.8445 62.0243 59.6271 61.6857 59.6271Z" fill="#D3DAAB"/>
<defs>
<linearGradient id="paint0_linear_41_230" x1="0.750002" y1="-43.4485" x2="94.4362" y2="107.342" gradientUnits="userSpaceOnUse">
<stop stop-color="#A9A5DD"/>
<stop offset="1" stop-color="#110C24"/>
</linearGradient>
</defs>
</svg>
