<svg width="46" height="46" viewBox="0 0 46 46" fill="none" xmlns="http://www.w3.org/2000/svg">
<path d="M40.0583 3.83325H5.94165C5.38248 3.83325 4.84622 4.05538 4.45083 4.45077C4.05544 4.84616 3.83331 5.38242 3.83331 5.94159V40.0583C3.83331 40.3351 3.88785 40.6093 3.9938 40.8651C4.09975 41.1209 4.25505 41.3533 4.45083 41.5491C4.64661 41.7448 4.87903 41.9001 5.13482 42.0061C5.39062 42.112 5.66478 42.1666 5.94165 42.1666H24.3033V27.3124H19.32V21.5624H24.3033V17.2499C24.2001 16.2375 24.3196 15.2147 24.6535 14.2533C24.9874 13.2919 25.5276 12.4152 26.2362 11.6847C26.9448 10.9542 27.8046 10.3876 28.7554 10.0245C29.7062 9.66152 30.7248 9.5109 31.74 9.58325C33.2318 9.57407 34.7229 9.65087 36.2058 9.81325V14.9883H33.1583C30.7433 14.9883 30.2833 16.1383 30.2833 17.8058V21.5049H36.0333L35.2858 27.2549H30.2833V42.1666H40.0583C40.3352 42.1666 40.6093 42.112 40.8651 42.0061C41.1209 41.9001 41.3534 41.7448 41.5491 41.5491C41.7449 41.3533 41.9002 41.1209 42.0062 40.8651C42.1121 40.6093 42.1666 40.3351 42.1666 40.0583V5.94159C42.1666 5.66471 42.1121 5.39056 42.0062 5.13476C41.9002 4.87897 41.7449 4.64655 41.5491 4.45077C41.3534 4.25499 41.1209 4.09969 40.8651 3.99374C40.6093 3.88779 40.3352 3.83325 40.0583 3.83325Z" fill="white"/>
</svg>
