<svg width="38" height="48" viewBox="0 0 38 48" fill="none" xmlns="http://www.w3.org/2000/svg">
<path d="M36.1733 21.7333C35.1373 19.4046 33.6353 17.3128 31.76 15.5867L30.2 14.1733C30.148 14.1251 30.0847 14.0906 30.016 14.0729C29.9473 14.0553 29.8752 14.0551 29.8064 14.0723C29.7375 14.0895 29.6741 14.1236 29.6217 14.1715C29.5694 14.2194 29.5299 14.2796 29.5067 14.3467L28.8133 16.3333C28.2897 17.7346 27.4919 19.0174 26.4667 20.1067C26.4119 20.1684 26.3355 20.2066 26.2533 20.2133C26.2098 20.2209 26.1651 20.2176 26.1232 20.2036C26.0813 20.1896 26.0436 20.1655 26.0133 20.1333C25.9457 20.0663 25.9073 19.9752 25.9067 19.88C25.9453 16.0901 24.9396 12.3628 23 9.10667C21.3636 5.95103 18.8794 3.31443 15.8267 1.49334L13.6667 0.200006C13.6005 0.161741 13.5253 0.141935 13.4489 0.142658C13.3725 0.143381 13.2977 0.164605 13.2323 0.204115C13.1669 0.243624 13.1134 0.299969 13.0772 0.367263C13.041 0.434557 13.0235 0.510332 13.0267 0.586672L13.1467 3.14667C13.2541 4.70026 13.0501 6.25966 12.5467 7.73334C11.5348 10.4263 9.78881 12.7819 7.50665 14.5333C5.26523 16.2658 3.44242 18.4806 2.17332 21.0133C0.904393 23.5702 0.242775 26.3855 0.239989 29.24C0.215485 31.7298 0.70101 34.1983 1.66665 36.4933C3.64721 41.0518 7.34309 44.6471 11.9545 46.5011C16.5659 48.3552 21.7218 48.3188 26.3067 46.4C30.8039 44.525 34.3983 40.9784 36.3333 36.5067C37.3297 34.1682 37.8333 31.6493 37.8126 29.1075C37.792 26.5657 37.2476 24.0554 36.2133 21.7333H36.1733ZM29.6667 39.8267C26.8116 42.6472 22.96 44.2289 18.9467 44.2289C14.9333 44.2289 11.0817 42.6472 8.22666 39.8267C6.01364 37.6252 4.5497 34.7831 4.04235 31.7031C3.535 28.6231 4.00999 25.4616 5.39999 22.6667C6.41166 20.6187 7.86964 18.8235 9.66665 17.4133C10.8215 16.53 11.8686 15.5141 12.7867 14.3867C14.1046 12.7891 15.1539 10.9878 15.8933 9.05334C16.1879 8.24978 16.4022 7.41907 16.5333 6.57334C17.8558 7.81062 18.9602 9.26208 19.8 10.8667C21.4067 13.5298 22.2507 16.5831 22.24 19.6933C22.2118 20.2478 22.2994 20.802 22.4971 21.3208C22.6948 21.8395 22.9984 22.3115 23.3884 22.7065C23.7784 23.1016 24.2464 23.4111 24.7626 23.6154C25.2788 23.8198 25.8319 23.9144 26.3867 23.8933C26.8973 23.8586 27.3959 23.7229 27.8537 23.494C28.3114 23.2651 28.7192 22.9477 29.0533 22.56C29.7809 21.8079 30.4329 20.9861 31 20.1067C31.751 21.0592 32.3783 22.103 32.8667 23.2133C34.0874 25.9791 34.435 29.0515 33.8632 32.0201C33.2914 34.9888 31.8274 37.7122 29.6667 39.8267Z" fill="white"/>
</svg>
