<svg width="46" height="46" viewBox="0 0 46 46" fill="none" xmlns="http://www.w3.org/2000/svg">
<path d="M33.235 10.6317C32.7801 10.6317 32.3354 10.7666 31.9572 11.0193C31.5789 11.272 31.2841 11.6312 31.1101 12.0515C30.936 12.4718 30.8904 12.9342 30.9792 13.3804C31.0679 13.8265 31.287 14.2364 31.6086 14.558C31.9303 14.8797 32.3401 15.0987 32.7863 15.1875C33.2324 15.2762 33.6949 15.2307 34.1152 15.0566C34.5354 14.8825 34.8946 14.5877 35.1474 14.2095C35.4001 13.8312 35.535 13.3866 35.535 12.9317C35.535 12.3217 35.2927 11.7367 34.8613 11.3053C34.43 10.874 33.845 10.6317 33.235 10.6317ZM42.0516 15.27C42.0144 13.6797 41.7165 12.1064 41.17 10.6125C40.6826 9.33434 39.9241 8.17695 38.9466 7.22C37.9976 6.23757 36.8375 5.48384 35.5541 5.01583C34.0642 4.45264 32.4891 4.14799 30.8966 4.115C28.865 4 28.2133 4 23 4C17.7866 4 17.135 4 15.1033 4.115C13.5109 4.14799 11.9357 4.45264 10.4458 5.01583C9.16486 5.48858 8.00577 6.24166 7.05331 7.22C6.07088 8.16909 5.31715 9.32918 4.84915 10.6125C4.28595 12.1024 3.9813 13.6775 3.94831 15.27C3.83331 17.3017 3.83331 17.9533 3.83331 23.1667C3.83331 28.38 3.83331 29.0317 3.94831 31.0633C3.9813 32.6558 4.28595 34.2309 4.84915 35.7208C5.31715 37.0042 6.07088 38.1642 7.05331 39.1133C8.00577 40.0917 9.16486 40.8448 10.4458 41.3175C11.9357 41.8807 13.5109 42.1853 15.1033 42.2183C17.135 42.3333 17.7866 42.3333 23 42.3333C28.2133 42.3333 28.865 42.3333 30.8966 42.2183C32.4891 42.1853 34.0642 41.8807 35.5541 41.3175C36.8375 40.8495 37.9976 40.0958 38.9466 39.1133C39.9284 38.1599 40.6876 37.0015 41.17 35.7208C41.7165 34.227 42.0144 32.6536 42.0516 31.0633C42.0516 29.0317 42.1666 28.38 42.1666 23.1667C42.1666 17.9533 42.1666 17.3017 42.0516 15.27ZM38.6016 30.8333C38.5877 32.05 38.3673 33.2554 37.95 34.3983C37.644 35.2325 37.1524 35.9861 36.5125 36.6025C35.8908 37.236 35.1387 37.7265 34.3083 38.04C33.1654 38.4574 31.96 38.6777 30.7433 38.6917C28.8266 38.7875 28.1175 38.8067 23.0766 38.8067C18.0358 38.8067 17.3266 38.8067 15.41 38.6917C14.1467 38.7153 12.8888 38.5208 11.6916 38.1167C10.8977 37.7871 10.1801 37.2978 9.58331 36.6792C8.94715 36.0634 8.46176 35.3091 8.16498 34.475C7.69704 33.3157 7.4375 32.0829 7.39831 30.8333C7.39831 28.9167 7.28331 28.2075 7.28331 23.1667C7.28331 18.1258 7.28331 17.4167 7.39831 15.5C7.4069 14.2562 7.63397 13.0236 8.06915 11.8583C8.40657 11.0493 8.92449 10.3282 9.58331 9.75C10.1656 9.09099 10.8853 8.5676 11.6916 8.21667C12.86 7.79508 14.0913 7.57474 15.3333 7.565C17.25 7.565 17.9591 7.45 23 7.45C28.0408 7.45 28.75 7.45 30.6666 7.565C31.8833 7.57895 33.0887 7.79931 34.2316 8.21667C35.1026 8.53992 35.8844 9.06546 36.5125 9.75C37.1406 10.3388 37.6314 11.0586 37.95 11.8583C38.376 13.0255 38.5964 14.2576 38.6016 15.5C38.6975 17.4167 38.7166 18.1258 38.7166 23.1667C38.7166 28.2075 38.6975 28.9167 38.6016 30.8333ZM23 13.3342C21.0561 13.338 19.157 13.9178 17.5426 15.0006C15.9281 16.0833 14.6709 17.6202 13.9296 19.4172C13.1884 21.2142 12.9964 23.1906 13.3779 25.0966C13.7595 27.0027 14.6974 28.7529 16.0733 30.126C17.4492 31.4992 19.2012 32.4338 21.108 32.8116C23.0148 33.1895 24.9908 32.9936 26.7863 32.2489C28.5818 31.5041 30.1163 30.2438 31.1959 28.6273C32.2755 27.0108 32.8516 25.1105 32.8516 23.1667C32.8542 21.8731 32.601 20.5918 32.1065 19.3965C31.6121 18.2012 30.8862 17.1154 29.9706 16.2016C29.0551 15.2878 27.9679 14.564 26.7716 14.0719C25.5753 13.5798 24.2935 13.3291 23 13.3342ZM23 29.5492C21.7376 29.5492 20.5036 29.1748 19.4541 28.4735C18.4045 27.7722 17.5864 26.7754 17.1033 25.6091C16.6202 24.4429 16.4938 23.1596 16.7401 21.9215C16.9864 20.6834 17.5943 19.5462 18.4869 18.6536C19.3795 17.7609 20.5167 17.1531 21.7548 16.9068C22.9929 16.6605 24.2762 16.7869 25.4425 17.27C26.6087 17.7531 27.6055 18.5711 28.3068 19.6207C29.0082 20.6703 29.3825 21.9043 29.3825 23.1667C29.3825 24.0048 29.2174 24.8348 28.8966 25.6091C28.5759 26.3835 28.1058 27.0871 27.5131 27.6798C26.9204 28.2724 26.2168 28.7426 25.4425 29.0633C24.6681 29.3841 23.8381 29.5492 23 29.5492Z" fill="white"/>
</svg>
