<svg width="72" height="79" viewBox="0 0 72 79" fill="none" xmlns="http://www.w3.org/2000/svg">
<rect y="0.5" width="72" height="75" rx="30" fill="url(#paint0_linear_42_250)"/>
<path d="M51.5665 22.9295V23.9878H47.7902V22.9295C47.791 22.286 47.9903 21.6691 48.3443 21.2142C48.6984 20.7593 49.1783 20.5034 49.6789 20.5027H49.7263C50.2187 20.5186 50.6867 20.7813 51.0305 21.2347C51.3743 21.6881 51.5667 22.2963 51.5665 22.9295Z" stroke="#E8E8E8" stroke-width="2" stroke-linecap="round" stroke-linejoin="round"/>
<path d="M51.5665 27.5856H47.7902V47.8352H51.5665V27.5856Z" stroke="#E8E8E8" stroke-width="2" stroke-linecap="round" stroke-linejoin="round"/>
<path d="M16.6465 23.9878H19.8021V27.5854H16.6465C16.8381 27.0177 16.937 26.4055 16.937 25.7866C16.937 25.1677 16.8381 24.5555 16.6465 23.9878V23.9878ZM55.0511 25.7927C55.0518 26.4095 55.1508 27.0197 55.342 27.5854H47.7903V23.9878H55.342C55.1499 24.5574 55.0509 25.1718 55.0511 25.7927V25.7927Z" stroke="#E8E8E8" stroke-width="2" stroke-linecap="round" stroke-linejoin="round"/>
<path d="M62.08 25.7928C62.0804 26.687 61.8745 27.5614 61.4883 28.3052C61.1021 29.049 60.553 29.6288 59.9104 29.9712C59.2679 30.3137 58.5607 30.4035 57.8785 30.2291C57.1962 30.0548 56.5695 29.6242 56.0777 28.9919C55.5858 28.3595 55.2509 27.5538 55.1153 26.6767C54.9797 25.7996 55.0495 24.8904 55.3159 24.0643C55.5823 23.2382 56.0333 22.5323 56.6118 22.0358C57.1903 21.5393 57.8704 21.2745 58.566 21.2751C59.498 21.2751 60.3918 21.751 61.0507 22.5983C61.7097 23.4455 62.08 24.5946 62.08 25.7928V25.7928ZM16.9373 25.7928C16.936 26.9089 16.6129 27.9848 16.0305 28.8125C15.4481 29.6402 14.6476 30.1609 13.7839 30.274C12.9202 30.387 12.0546 30.0843 11.3543 29.4245C10.6541 28.7646 10.1691 27.7944 9.99291 26.7015C9.81676 25.6086 9.96204 24.4705 10.4007 23.5072C10.8393 22.544 11.5401 21.824 12.3676 21.4865C13.1952 21.149 14.0906 21.2179 14.8809 21.6799C15.6712 22.1419 16.3003 22.9642 16.6464 23.9879C16.8386 24.5575 16.9376 25.1718 16.9373 25.7928V25.7928ZM49.6789 20.5027C49.1784 20.5034 48.6984 20.7593 48.3444 21.2142C47.9903 21.6692 47.791 22.286 47.7902 22.9296V62.136C47.2473 61.5325 46.5528 61.2019 45.8351 61.2051C45.1871 61.2052 44.5565 61.4739 44.0368 61.9714C43.5171 62.4689 43.1361 63.1686 42.9504 63.9667H42.6985C42.5129 63.1682 42.132 62.468 41.6121 61.9701C41.0923 61.4722 40.4614 61.2033 39.8132 61.2033C39.165 61.2033 38.5341 61.4722 38.0143 61.9701C37.4945 62.468 37.1135 63.1682 36.928 63.9667H36.6771C36.4927 63.1685 36.1127 62.4683 35.5936 61.9704C35.0746 61.4724 34.4442 61.2034 33.7966 61.2034C33.149 61.2034 32.5187 61.4724 31.9996 61.9704C31.4805 62.4683 31.1005 63.1685 30.9161 63.9667H30.6642C30.479 63.168 30.0982 62.4675 29.5785 61.9694C29.0587 61.4713 28.4278 61.2022 27.7795 61.2022C27.1312 61.2022 26.5003 61.4713 25.9805 61.9694C25.4607 62.4675 25.0799 63.168 24.8948 63.9667H24.6429C24.4571 63.1686 24.0761 62.4689 23.5564 61.9714C23.0367 61.4739 22.4061 61.2052 21.7581 61.2051C21.04 61.2023 20.3452 61.5334 19.802 62.1374V23.9255C19.802 23.017 20.0827 22.1457 20.5824 21.5033C21.082 20.8609 21.7598 20.5 22.4664 20.5L49.6789 20.5027Z" stroke="#E8E8E8" stroke-width="2" stroke-linecap="round" stroke-linejoin="round"/>
<path d="M47.7934 50.1671H19.7988V54.4192H47.7934V50.1671Z" stroke="#E8E8E8" stroke-width="2" stroke-linecap="round" stroke-linejoin="round"/>
<defs>
<linearGradient id="paint0_linear_42_250" x1="1.35837e-06" y1="-43.1734" x2="97.7124" y2="98.37" gradientUnits="userSpaceOnUse">
<stop stop-color="#454545"/>
<stop offset="1"/>
</linearGradient>
</defs>
</svg>
