<svg width="38" height="49" viewBox="0 0 38 49" fill="none" xmlns="http://www.w3.org/2000/svg">
<path d="M25.32 48.765H12.22L13.22 45.645L13.58 44.515H23.96L24.32 45.645L25.32 48.765Z" fill="#D92B5D"/>
<path d="M24.32 45.645H13.22L13.58 44.515H23.96L24.32 45.645Z" fill="#CC215B"/>
<path d="M36.87 35.585C31.72 31.365 28.88 26.065 27.35 22.855L10.19 22.865C8.66 26.065 5.82 31.365 0.67 35.585C0.26 35.925 0 36.445 0 37.005V42.705C0 43.205 0.37 43.605 0.84 43.605H11.24H26.28H36.68C37.15 43.605 37.52 43.205 37.52 42.705V37.005C37.54 36.445 37.28 35.925 36.87 35.585Z" fill="#E9E8E8"/>
<path d="M18.77 0.234985C18.66 0.324985 9.47998 7.77499 9.99998 19.175L11.32 45.135H26.21L27.53 19.175C28.06 7.77499 18.88 0.324985 18.77 0.234985Z" fill="#F4F2F2"/>
<path d="M26.2 10.855C23.51 4.87499 18.86 1.29499 18.77 1.23499C18.68 1.29499 14.04 4.87499 11.35 10.835C13.8 4.27499 18.69 0.304985 18.77 0.234985C18.85 0.304985 23.76 4.28499 26.2 10.855Z" fill="#E9E8E8"/>
<path d="M23.22 11.355C20.21 7.74497 17.24 7.80497 14.32 11.355C17.29 10.645 20.25 10.645 23.22 11.355Z" fill="#7CA2C1"/>
<path d="M18.77 32.545C18.21 32.545 17.76 32.995 17.76 33.555V45.135H19.78V33.555C19.78 32.995 19.33 32.545 18.77 32.545Z" fill="#E9E8E8"/>
</svg>
