<svg width="46" height="46" viewBox="0 0 46 46" fill="none" xmlns="http://www.w3.org/2000/svg">
<path d="M42.6739 4.65324C42.1282 4.19925 41.4696 3.90171 40.7682 3.79229C40.0668 3.68286 39.3489 3.76565 38.6908 4.03184L4.34241 17.8996C3.60785 18.2018 2.98257 18.7203 2.54956 19.3862C2.11656 20.0521 1.8963 20.8339 1.91803 21.6279C1.93976 22.422 2.20245 23.1906 2.67123 23.8318C3.14001 24.473 3.79271 24.9565 4.5427 25.2181L11.4906 27.6345L15.3632 40.441C15.4159 40.6121 15.4922 40.7749 15.5901 40.9248C15.605 40.9478 15.6259 40.9649 15.6417 40.9872C15.7548 41.145 15.8915 41.2845 16.047 41.4008C16.0912 41.4345 16.1335 41.466 16.1808 41.496C16.3628 41.6167 16.5643 41.705 16.7764 41.7569L16.7991 41.7588L16.8119 41.7643C16.9394 41.7902 17.0692 41.8034 17.1994 41.8036C17.2119 41.8036 17.223 41.7976 17.2354 41.7974C17.4318 41.7939 17.6265 41.7601 17.8125 41.6971C17.8558 41.6824 17.8929 41.6577 17.9349 41.6399C18.0736 41.5824 18.205 41.5087 18.3264 41.4204C18.4236 41.3384 18.5209 41.2565 18.6182 41.1747L23.7973 35.4565L31.522 41.4405C32.2021 41.9699 33.0391 42.2577 33.901 42.2584C34.8041 42.2573 35.6793 41.9457 36.38 41.3759C37.0806 40.8061 37.5641 40.0127 37.7493 39.1288L44.0028 8.43044C44.1445 7.73951 44.0957 7.02306 43.8616 6.35773C43.6276 5.6924 43.217 5.10323 42.6739 4.65324ZM17.9594 28.2447C17.6936 28.5094 17.5119 28.8467 17.4372 29.2143L16.8439 32.097L15.3411 27.1269L23.1329 23.0694L17.9594 28.2447ZM33.8711 38.4101L24.7426 31.3386C24.3607 31.0435 23.8816 30.9032 23.4008 30.9455C22.92 30.9878 22.4728 31.2097 22.1483 31.567L20.4896 33.3978L21.0758 30.5488L34.6516 16.973C34.9756 16.6494 35.173 16.2205 35.2081 15.7638C35.2431 15.3072 35.1135 14.8532 34.8427 14.4839C34.5718 14.1146 34.1777 13.8545 33.7316 13.7508C33.2856 13.647 32.8171 13.7065 32.4111 13.9183L12.9276 24.0625L5.78928 21.4503L40.2481 7.66484L33.8711 38.4101Z" fill="white"/>
</svg>
